<?xml version="1.0" encoding="UTF-8" standalone="no"?> <!-- Created with Vectornator for iOS (http://vectornator.io/) --><!DOCTYPE svg PUBLIC "-//W3C//DTD SVG 1.1//EN" "http://www.w3.org/Graphics/SVG/1.1/DTD/svg11.dtd">
<svg xmlns:vectornator="http://vectornator.io" width="100%" xmlns:xlink="http://www.w3.org/1999/xlink" style="fill-rule:nonzero;clip-rule:evenodd;stroke-linecap:round;stroke-linejoin:round;" xml:space="preserve" viewBox="0 0 1024 1024" height="100%" version="1.1" xmlns="http://www.w3.org/2000/svg">
<metadata>
<vectornator:setting key="WDCMYKEnabledKey" value="false"/>
<vectornator:setting key="UndoHistoryDisabled" value="true"/>
<vectornator:setting key="WDUnits" value="Pixels"/>
<vectornator:setting value="false" key="WDOutlineMode"/>
<vectornator:setting key="WDDynamicGuides" value="false"/>
<vectornator:setting key="WDRulersVisible" value="true"/>
<vectornator:setting key="WDDisplayWhiteBackground" value="false"/>
<vectornator:setting value="true" key="VNDimensionsVisible"/>
<vectornator:setting value="false" key="IsTimeLapseWatermarkDisabled"/>
<vectornator:setting key="WDIsolateActiveLayer" value="false"/>
<vectornator:setting key="WDGuidesVisible" value="true"/>
<vectornator:setting value="false" key="WDSnapToPoints"/>
<vectornator:setting key="WDSnapToEdges" value="false"/>
<vectornator:setting key="VNSnapToGuides" value="true"/>
<vectornator:setting key="WDSnapToGrid" value="false"/>
</metadata>
<defs>
<linearGradient y1="520.498" x1="169.833" x2="1016.49" gradientUnits="userSpaceOnUse" id="LinearGradient" y2="1151.49" gradientTransform="matrix(0.999998 0 0 0.999998 -11.9495 -8.4972)">
<stop offset="0.332999" stop-color="#000000"/>
<stop stop-color="#8d8c8c" offset="0.987648"/>
</linearGradient>
</defs>
<g vectornator:layerName="Layer 1" id="Layer 1">
<g opacity="1">
<path fill="url(#LinearGradient)" opacity="1" d="M556.968+266.543C526.584+267.63+489.377+298.092+500.468+329.45C507.642+349.734+548.437+352.325+548.437+352.325C587.272+351.156+589.779+332.411+591.218+324.043C594.724+303.657+594.115+269.883+562.937+266.731C560.988+266.534+558.993+266.471+556.968+266.543ZM498.843+168.62C312.138+168.62+160.781+319.977+160.781+506.682C160.781+693.387+303.354+857.075+490.051+855.367C660.054+853.812+608.715+800.238+535.143+716.802C519.072+698.576+456.439+604.678+495.522+612.793C520.435+617.965+614.649+747.502+618.45+715.886C622.251+684.269+487.682+572.234+525.707+553.753C563.003+535.627+592.554+626.009+625.183+631.461C652.147+635.966+572.638+544.278+639.831+554.191C707.024+564.103+739.46+664.106+762.585+645.925C784.3+628.852+699.988+567.964+719.416+547.841C740.883+525.605+777.7+610.266+803.478+605.434C832.74+599.948+776.995+527.677+816.243+516.82C829.951+513.029+848.719+570.578+857.708+562.389C876.918+544.889+840.374+461.992+832.332+426.453C801.812+291.572+685.548+168.62+498.843+168.62ZM559.593+206.044C607.162+207.402+658.107+238.176+672.03+267.168C698.405+322.089+668.222+364.142+586.687+409.231C505.151+454.319+444.391+408.005+403.656+497.324C354.952+604.116+321.274+756.303+294.187+748.136C267.101+739.969+335.578+371.193+500.593+225.387C517.005+210.886+537.97+205.426+559.593+206.044Z"/>
<path opacity="1" d="M491.859+311.278C491.859+280.867+516.512+256.214+546.923+256.214C577.334+256.214+601.987+280.867+601.987+311.278C601.987+341.689+577.334+366.342+546.923+366.342C516.512+366.342+491.859+341.689+491.859+311.278Z" fill="#000000"/>
</g>
</g>
</svg>
