<?xml version="1.0" encoding="UTF-8" standalone="no"?> <!-- Created with Vectornator for iOS (http://vectornator.io/) --><!DOCTYPE svg PUBLIC "-//W3C//DTD SVG 1.1//EN" "http://www.w3.org/Graphics/SVG/1.1/DTD/svg11.dtd">
<svg xmlns="http://www.w3.org/2000/svg" xml:space="preserve" xmlns:vectornator="http://vectornator.io" style="fill-rule:nonzero;clip-rule:evenodd;stroke-linecap:round;stroke-linejoin:round;" xmlns:xlink="http://www.w3.org/1999/xlink" version="1.1" width="100%" viewBox="0 0 1024 1024" height="100%">
<metadata>
<vectornator:setting value="false" key="WDDynamicGuides"/>
<vectornator:setting key="WDOutlineMode" value="false"/>
<vectornator:setting key="WDGuidesVisible" value="true"/>
<vectornator:setting value="false" key="WDSnapToEdges"/>
<vectornator:setting value="false" key="WDIsolateActiveLayer"/>
<vectornator:setting key="UndoHistoryDisabled" value="true"/>
<vectornator:setting key="WDCMYKEnabledKey" value="false"/>
<vectornator:setting key="WDSnapToPoints" value="false"/>
<vectornator:setting value="true" key="WDRulersVisible"/>
<vectornator:setting key="IsTimeLapseWatermarkDisabled" value="false"/>
<vectornator:setting key="WDDisplayWhiteBackground" value="false"/>
<vectornator:setting key="WDUnits" value="Pixels"/>
<vectornator:setting key="VNSnapToGuides" value="true"/>
<vectornator:setting key="WDSnapToGrid" value="false"/>
<vectornator:setting value="true" key="VNDimensionsVisible"/>
</metadata>
<defs>
<radialGradient r="340.887" gradientUnits="userSpaceOnUse" gradientTransform="matrix(1 0 0 1 -6.15636 1.15773)" cx="514.824" id="RadialGradient" cy="512">
<stop stop-color="#887777" offset="0"/>
<stop offset="1" stop-color="#502525"/>
</radialGradient>
<radialGradient id="RadialGradient_2" gradientTransform="matrix(1 0 0 1 -25.5742 -15.4316)" cx="584.448" cy="335.207" r="55.0642" gradientUnits="userSpaceOnUse">
<stop offset="0" stop-color="#887777"/>
<stop offset="1" stop-color="#502525"/>
</radialGradient>
</defs>
<g vectornator:layerName="Layer 1" id="Layer 1">
<path fill="url(#RadialGradient)" d="M568.646+214.541C616.215+215.9+667.16+246.673+681.083+275.666C707.458+330.587+677.275+372.64+595.74+417.729C514.204+462.817+453.444+416.503+412.708+505.822C364.004+612.614+330.326+764.802+303.24+756.635C276.153+748.468+344.63+379.691+509.646+233.885C526.058+219.384+547.023+213.924+568.646+214.541ZM566.021+275.041C535.637+276.128+498.43+306.589+509.521+337.947C516.695+358.231+557.49+360.822+557.49+360.822C596.325+359.654+598.832+340.909+600.271+332.541C603.777+312.155+603.168+278.381+571.99+275.229C570.041+275.032+568.046+274.969+566.021+275.041ZM507.896+177.118C321.191+177.118+169.833+328.475+169.833+515.18C169.833+701.885+312.407+865.574+499.104+863.866C669.107+862.31+617.768+808.737+544.196+725.3C528.125+707.075+465.491+613.177+504.574+621.291C529.488+626.464+623.702+756.001+627.503+724.384C631.304+692.768+496.735+580.732+534.76+562.252C572.056+544.125+601.606+634.507+634.236+639.959C661.2+644.464+581.69+552.776+648.884+562.689C716.077+572.602+748.513+672.604+771.638+654.423C793.353+637.351+709.041+576.463+728.469+556.339C749.936+534.103+786.754+618.765+812.532+613.932C841.793+608.447+786.048+536.175+825.296+525.318C839.004+521.527+857.773+579.076+866.761+570.887C885.971+553.387+849.427+470.49+841.386+434.951C810.865+300.07+694.601+177.118+507.896+177.118Z" opacity="1"/>
<path d="M503.809+319.776C503.809+289.365+528.462+264.712+558.874+264.712C589.285+264.712+613.938+289.365+613.938+319.776C613.938+350.187+589.285+374.84+558.874+374.84C528.462+374.84+503.809+350.187+503.809+319.776Z" opacity="1" fill="url(#RadialGradient_2)"/>
</g>
</svg>
