<?xml version="1.0" encoding="UTF-8" standalone="no"?>
<!DOCTYPE svg PUBLIC "-//W3C//DTD SVG 1.1//EN" "http://www.w3.org/Graphics/SVG/1.1/DTD/svg11.dtd">
<!-- Created with Vectornator (http://vectornator.io/) -->
<svg height="100%" stroke-miterlimit="10" style="fill-rule:nonzero;clip-rule:evenodd;stroke-linecap:round;stroke-linejoin:round;" version="1.1" viewBox="0 0 595.35 165.734" width="100%" xml:space="preserve" xmlns="http://www.w3.org/2000/svg" xmlns:vectornator="http://vectornator.io" xmlns:xlink="http://www.w3.org/1999/xlink">
<defs>
<linearGradient gradientTransform="matrix(0.241633 0 0 0.241327 -41.7374 -42.7432)" gradientUnits="userSpaceOnUse" id="LinearGradient" x1="169.833" x2="1016.49" y1="520.498" y2="1151.49">
<stop offset="0.332999" stop-color="#000000"/>
</linearGradient>
</defs>
<clipPath id="ArtboardFrame">
<rect height="165.734" width="595.35" x="0" y="0"/>
</clipPath>
<g clip-path="url(#ArtboardFrame)" id="Layer-1" vectornator:layerName="Layer 1">
<g opacity="1">
<g opacity="1">
<path d="M95.7319 23.6315C88.3901 23.8938 79.3997 31.2452 82.0796 38.8127C83.8131 43.7078 93.6705 44.3331 93.6705 44.3331C103.054 44.0509 103.66 39.5273 104.008 37.5078C104.855 32.5881 104.708 24.4375 97.1742 23.6769C96.7033 23.6293 96.2212 23.6141 95.7319 23.6315ZM81.687 0C36.5729 0 0 36.5266 0 81.5836C0 126.641 34.4504 166.143 79.5625 165.731C120.641 165.356 108.236 152.427 90.4583 132.291C86.575 127.893 71.4408 105.233 80.8845 107.191C86.9043 108.439 109.67 139.7 110.588 132.07C111.506 124.44 78.9901 97.4031 88.1782 92.9432C97.1901 88.5689 104.331 110.381 112.215 111.696C118.73 112.783 99.5183 90.6566 115.754 93.0489C131.99 95.4409 139.828 119.574 145.416 115.187C150.663 111.067 130.29 96.3727 134.985 91.5164C140.172 86.1503 149.068 106.581 155.297 105.415C162.368 104.091 148.898 86.6503 158.381 84.0302C161.694 83.1153 166.229 97.0035 168.401 95.0273C173.042 90.804 164.212 70.7987 162.269 62.2222C154.894 29.6717 126.801 0 81.687 0ZM96.3662 9.03144C107.86 9.35916 120.17 16.7858 123.535 23.7823C129.908 37.0363 122.615 47.1848 102.913 58.066C83.2112 68.947 68.5296 57.7702 58.6866 79.3253C46.9181 105.097 38.7804 141.824 32.2353 139.853C25.6904 137.882 42.2367 48.8864 82.1098 13.6994C86.0755 10.1999 91.1413 8.8823 96.3662 9.03144Z" fill="url(#LinearGradient)" fill-rule="nonzero" opacity="1" stroke="none"/>
<path d="M79.9994 34.4273C79.9994 27.0883 85.9564 21.1388 93.3047 21.1388C100.653 21.1388 106.61 27.0883 106.61 34.4273C106.61 41.7663 100.653 47.7157 93.3047 47.7157C85.9564 47.7157 79.9994 41.7663 79.9994 34.4273Z" fill="#000000" fill-rule="nonzero" opacity="1" stroke="none"/>
</g>
<g opacity="1">
<g opacity="1">
<clipPath id="ClipPath">
<path d="M245.209 0L595.35 0L595.35 0L595.35 165.723L595.35 165.723L245.209 165.723L245.209 165.723L245.209 0L245.209 0Z"/>
</clipPath>
<g clip-path="url(#ClipPath)">
<path d="M268.105 106.066L297.636 106.066C305.338 106.066 312.003 104.619 317.632 101.726C323.26 98.8317 327.612 94.7188 330.688 89.3867C333.764 84.0547 335.302 77.7428 335.302 70.4512L335.302 70.3145C335.302 63.0228 333.764 56.6882 330.688 51.3105C327.612 45.9329 323.26 41.763 317.632 38.8008C312.003 35.8385 305.338 34.3574 297.636 34.3574L268.105 34.3574L268.105 56.1641L290.732 56.1641C295.517 56.1641 299.266 57.3376 301.977 59.6846C304.689 62.0316 306.045 65.5749 306.045 70.3145L306.045 70.4512C306.045 75.1452 304.689 78.6885 301.977 81.0811C299.266 83.4736 295.517 84.6699 290.732 84.6699L268.105 84.6699L268.105 106.066ZM253.545 133L282.529 133L282.529 34.3574L253.545 34.3574L253.545 133Z" fill="#000000" fill-rule="nonzero" opacity="1" stroke="none"/>
</g>
</g>
<g opacity="1">
<clipPath id="ClipPath_2">
<path d="M245.209 0L595.35 0L595.35 0L595.35 165.723L595.35 165.723L245.209 165.723L245.209 165.723L245.209 0L245.209 0Z"/>
</clipPath>
<g clip-path="url(#ClipPath_2)">
<path d="M345.556 133L415.146 133L415.146 110.031L374.541 110.031L374.541 94.377L412.617 94.377L412.617 73.0488L374.541 73.0488L374.541 57.3262L415.146 57.3262L415.146 34.3574L345.556 34.3574L345.556 133Z" fill="#000000" fill-rule="nonzero" opacity="1" stroke="none"/>
</g>
</g>
<g opacity="1">
<clipPath id="ClipPath_3">
<path d="M245.209 0L595.35 0L595.35 0L595.35 165.723L595.35 165.723L245.209 165.723L245.209 165.723L245.209 0L245.209 0Z"/>
</clipPath>
<g clip-path="url(#ClipPath_3)">
<path d="M443.242 106.066L472.773 106.066C480.475 106.066 487.14 104.619 492.768 101.726C498.396 98.8317 502.749 94.7188 505.825 89.3867C508.901 84.0547 510.439 77.7428 510.439 70.4512L510.439 70.3145C510.439 63.0228 508.901 56.6882 505.825 51.3105C502.749 45.9329 498.396 41.763 492.768 38.8008C487.14 35.8385 480.475 34.3574 472.773 34.3574L443.242 34.3574L443.242 56.1641L465.869 56.1641C470.654 56.1641 474.402 57.3376 477.114 59.6846C479.826 62.0316 481.181 65.5749 481.181 70.3145L481.181 70.4512C481.181 75.1452 479.826 78.6885 477.114 81.0811C474.402 83.4736 470.654 84.6699 465.869 84.6699L443.242 84.6699L443.242 106.066ZM428.681 133L457.666 133L457.666 34.3574L428.681 34.3574L428.681 133Z" fill="#000000" fill-rule="nonzero" opacity="1" stroke="none"/>
</g>
</g>
<g opacity="1">
<clipPath id="ClipPath_4">
<path d="M245.209 0L595.35 0L595.35 0L595.35 165.723L595.35 165.723L245.209 165.723L245.209 165.723L245.209 0L245.209 0Z"/>
</clipPath>
<g clip-path="url(#ClipPath_4)">
<path d="M520.693 133L588.369 133L588.369 110.031L549.677 110.031L549.677 34.3574L520.693 34.3574L520.693 133Z" fill="#000000" fill-rule="nonzero" opacity="1" stroke="none"/>
</g>
</g>
</g>
</g>
</g>
</svg>
